<svg id="visual" viewBox="0 0 900 200" width="900" height="200" xmlns="http://www.w3.org/2000/svg" xmlns:xlink="http://www.w3.org/1999/xlink" version="1.1"><rect x="0" y="0" width="900" height="200" fill="#001220"></rect><path d="M0 133L8.8 133.2C17.7 133.3 35.3 133.7 53 129C70.7 124.3 88.3 114.7 106 117.8C123.7 121 141.3 137 159 138.5C176.7 140 194.3 127 212 129.3C229.7 131.7 247.3 149.3 265 148.5C282.7 147.7 300.3 128.3 318 116.7C335.7 105 353.3 101 371 107.8C388.7 114.7 406.3 132.3 423.8 142.7C441.3 153 458.7 156 476.2 156C493.7 156 511.3 153 529 152.5C546.7 152 564.3 154 582 155.5C599.7 157 617.3 158 635 157C652.7 156 670.3 153 688 153.2C705.7 153.3 723.3 156.7 741 155.8C758.7 155 776.3 150 794 144C811.7 138 829.3 131 847 128.5C864.7 126 882.3 128 891.2 129L900 130L900 0L891.2 0C882.3 0 864.7 0 847 0C829.3 0 811.7 0 794 0C776.3 0 758.7 0 741 0C723.3 0 705.7 0 688 0C670.3 0 652.7 0 635 0C617.3 0 599.7 0 582 0C564.3 0 546.7 0 529 0C511.3 0 493.7 0 476.2 0C458.7 0 441.3 0 423.8 0C406.3 0 388.7 0 371 0C353.3 0 335.7 0 318 0C300.3 0 282.7 0 265 0C247.3 0 229.7 0 212 0C194.3 0 176.7 0 159 0C141.3 0 123.7 0 106 0C88.3 0 70.7 0 53 0C35.3 0 17.7 0 8.8 0L0 0Z" fill="#fa7268"></path><path d="M0 86L8.8 85.3C17.7 84.7 35.3 83.3 53 85.7C70.7 88 88.3 94 106 99.5C123.7 105 141.3 110 159 106.5C176.7 103 194.3 91 212 88.7C229.7 86.3 247.3 93.7 265 103.3C282.7 113 300.3 125 318 129C335.7 133 353.3 129 371 122.8C388.7 116.7 406.3 108.3 423.8 108.2C441.3 108 458.7 116 476.2 116.5C493.7 117 511.3 110 529 111.8C546.7 113.7 564.3 124.3 582 127.2C599.7 130 617.3 125 635 125.3C652.7 125.7 670.3 131.3 688 133.2C705.7 135 723.3 133 741 131.3C758.7 129.7 776.3 128.3 794 125.7C811.7 123 829.3 119 847 121.2C864.7 123.3 882.3 131.7 891.2 135.8L900 140L900 0L891.2 0C882.3 0 864.7 0 847 0C829.3 0 811.7 0 794 0C776.3 0 758.7 0 741 0C723.3 0 705.7 0 688 0C670.3 0 652.7 0 635 0C617.3 0 599.7 0 582 0C564.3 0 546.7 0 529 0C511.3 0 493.7 0 476.2 0C458.7 0 441.3 0 423.8 0C406.3 0 388.7 0 371 0C353.3 0 335.7 0 318 0C300.3 0 282.7 0 265 0C247.3 0 229.7 0 212 0C194.3 0 176.7 0 159 0C141.3 0 123.7 0 106 0C88.3 0 70.7 0 53 0C35.3 0 17.7 0 8.8 0L0 0Z" fill="#f16367"></path><path d="M0 63L8.8 71.2C17.7 79.3 35.3 95.7 53 104.7C70.7 113.7 88.3 115.3 106 114.2C123.7 113 141.3 109 159 103.7C176.7 98.3 194.3 91.7 212 94.3C229.7 97 247.3 109 265 105.5C282.7 102 300.3 83 318 79.8C335.7 76.7 353.3 89.3 371 93.3C388.7 97.3 406.3 92.7 423.8 96C441.3 99.3 458.7 110.7 476.2 109.8C493.7 109 511.3 96 529 93.5C546.7 91 564.3 99 582 102.5C599.7 106 617.3 105 635 98.5C652.7 92 670.3 80 688 75.2C705.7 70.3 723.3 72.7 741 71.8C758.7 71 776.3 67 794 65C811.7 63 829.3 63 847 66.8C864.7 70.7 882.3 78.3 891.2 82.2L900 86L900 0L891.2 0C882.3 0 864.7 0 847 0C829.3 0 811.7 0 794 0C776.3 0 758.7 0 741 0C723.3 0 705.7 0 688 0C670.3 0 652.7 0 635 0C617.3 0 599.7 0 582 0C564.3 0 546.7 0 529 0C511.3 0 493.7 0 476.2 0C458.7 0 441.3 0 423.8 0C406.3 0 388.7 0 371 0C353.3 0 335.7 0 318 0C300.3 0 282.7 0 265 0C247.3 0 229.7 0 212 0C194.3 0 176.7 0 159 0C141.3 0 123.7 0 106 0C88.3 0 70.7 0 53 0C35.3 0 17.7 0 8.8 0L0 0Z" fill="#e85467"></path><path d="M0 74L8.8 73.2C17.7 72.3 35.3 70.7 53 68C70.7 65.3 88.3 61.7 106 65.7C123.7 69.7 141.3 81.3 159 81.8C176.7 82.3 194.3 71.7 212 71.5C229.7 71.3 247.3 81.7 265 85C282.7 88.3 300.3 84.7 318 78.7C335.7 72.7 353.3 64.3 371 66.5C388.7 68.7 406.3 81.3 423.8 82.8C441.3 84.3 458.7 74.7 476.2 68.7C493.7 62.7 511.3 60.3 529 58.7C546.7 57 564.3 56 582 55.2C599.7 54.3 617.3 53.7 635 55.7C652.7 57.7 670.3 62.3 688 67C705.7 71.7 723.3 76.3 741 78.3C758.7 80.3 776.3 79.7 794 81C811.7 82.3 829.3 85.7 847 84.2C864.7 82.7 882.3 76.3 891.2 73.2L900 70L900 0L891.2 0C882.3 0 864.7 0 847 0C829.3 0 811.7 0 794 0C776.3 0 758.7 0 741 0C723.3 0 705.7 0 688 0C670.3 0 652.7 0 635 0C617.3 0 599.7 0 582 0C564.3 0 546.7 0 529 0C511.3 0 493.7 0 476.2 0C458.7 0 441.3 0 423.8 0C406.3 0 388.7 0 371 0C353.3 0 335.7 0 318 0C300.3 0 282.7 0 265 0C247.3 0 229.7 0 212 0C194.3 0 176.7 0 159 0C141.3 0 123.7 0 106 0C88.3 0 70.7 0 53 0C35.3 0 17.7 0 8.8 0L0 0Z" fill="#de4467"></path><path d="M0 55L8.8 52.5C17.7 50 35.3 45 53 46.3C70.7 47.7 88.3 55.3 106 53.8C123.7 52.3 141.3 41.7 159 36.2C176.7 30.7 194.3 30.3 212 31.2C229.7 32 247.3 34 265 38.2C282.7 42.3 300.3 48.7 318 51.8C335.7 55 353.3 55 371 51.3C388.7 47.7 406.3 40.3 423.8 39.2C441.3 38 458.7 43 476.2 43C493.7 43 511.3 38 529 37.2C546.7 36.3 564.3 39.7 582 40C599.7 40.3 617.3 37.7 635 40.8C652.7 44 670.3 53 688 57C705.7 61 723.3 60 741 58.3C758.7 56.7 776.3 54.3 794 51C811.7 47.7 829.3 43.3 847 44C864.7 44.7 882.3 50.3 891.2 53.2L900 56L900 0L891.2 0C882.3 0 864.7 0 847 0C829.3 0 811.7 0 794 0C776.3 0 758.7 0 741 0C723.3 0 705.7 0 688 0C670.3 0 652.7 0 635 0C617.3 0 599.7 0 582 0C564.3 0 546.7 0 529 0C511.3 0 493.7 0 476.2 0C458.7 0 441.3 0 423.8 0C406.3 0 388.7 0 371 0C353.3 0 335.7 0 318 0C300.3 0 282.7 0 265 0C247.3 0 229.7 0 212 0C194.3 0 176.7 0 159 0C141.3 0 123.7 0 106 0C88.3 0 70.7 0 53 0C35.3 0 17.7 0 8.8 0L0 0Z" fill="#d23467"></path><path d="M0 44L8.8 42.5C17.7 41 35.3 38 53 37.2C70.7 36.3 88.3 37.7 106 33.8C123.7 30 141.3 21 159 16.8C176.7 12.7 194.3 13.3 212 15.3C229.7 17.3 247.3 20.7 265 21C282.7 21.3 300.3 18.7 318 17.8C335.7 17 353.3 18 371 21.7C388.7 25.3 406.3 31.7 423.8 31.2C441.3 30.7 458.7 23.3 476.2 23.7C493.7 24 511.3 32 529 34.5C546.7 37 564.3 34 582 34.2C599.7 34.3 617.3 37.7 635 36C652.7 34.3 670.3 27.7 688 22.7C705.7 17.7 723.3 14.3 741 17.3C758.7 20.3 776.3 29.7 794 31.8C811.7 34 829.3 29 847 24.8C864.7 20.7 882.3 17.3 891.2 15.7L900 14L900 0L891.2 0C882.3 0 864.7 0 847 0C829.3 0 811.7 0 794 0C776.3 0 758.7 0 741 0C723.3 0 705.7 0 688 0C670.3 0 652.7 0 635 0C617.3 0 599.7 0 582 0C564.3 0 546.7 0 529 0C511.3 0 493.7 0 476.2 0C458.7 0 441.3 0 423.8 0C406.3 0 388.7 0 371 0C353.3 0 335.7 0 318 0C300.3 0 282.7 0 265 0C247.3 0 229.7 0 212 0C194.3 0 176.7 0 159 0C141.3 0 123.7 0 106 0C88.3 0 70.7 0 53 0C35.3 0 17.7 0 8.8 0L0 0Z" fill="#c62368"></path></svg>